ISO-10303-21;
HEADER;
/* Generated by software containing ST-Developer
 * from STEP Tools, Inc. (www.steptools.com) 
 */
/* OPTION: using custom renumber hook */

FILE_DESCRIPTION(
/* description */ ('STEP AP242 Edition 2',
'CAx-IF Rec.Pracs.---Representation and Presentation of Product Manufa
cturing Information (PMI)---4.0---2014-10-13',
'CAx-IF Rec.Pracs.---3D Tessellated Geometry---0.4---2014-09-14','2;1',
'CAx-IF Rec.Pracs.---User Defined Attributes---1.5---2016-08-15'),
/* implementation_level */ '2;1');

FILE_NAME(
/* name */ 'Motor Bracket',
/* time_stamp */ '2026-09-06T01:41:44Z',
/* author */ (''),
/* organization */ (''),
/* preprocessor_version */ 'ST-DEVELOPER v20',
/* originating_system */ 'ONSHAPE BY PTC INC, 1.220',
/* authorisation */ '  ');

FILE_SCHEMA (('AP242_MANAGED_MODEL_BASED_3D_ENGINEERING_MIM_LF { 1 0 10303 442 3 1 4 }'));
ENDSEC;

DATA;
#10=SHAPE_REPRESENTATION_RELATIONSHIP('','',#693,#11);
#11=ADVANCED_BREP_SHAPE_REPRESENTATION('',(#691),#1165);
#12=CIRCLE('',#699,0.005);
#13=CIRCLE('',#700,0.005);
#14=CIRCLE('',#703,0.005);
#15=CIRCLE('',#704,0.005);
#16=CIRCLE('',#707,0.005);
#17=CIRCLE('',#708,0.005);
#18=CIRCLE('',#711,0.005);
#19=CIRCLE('',#712,0.005);
#20=CIRCLE('',#715,0.005);
#21=CIRCLE('',#716,0.005);
#22=CIRCLE('',#719,0.005);
#23=CIRCLE('',#720,0.005);
#24=CIRCLE('',#725,0.005);
#25=CIRCLE('',#726,0.005);
#26=CIRCLE('',#729,0.00325);
#27=CIRCLE('',#730,0.00325);
#28=CIRCLE('',#732,0.00325);
#29=CIRCLE('',#733,0.00325);
#30=CIRCLE('',#735,0.00325);
#31=CIRCLE('',#736,0.00325);
#32=CIRCLE('',#738,0.00325);
#33=CIRCLE('',#739,0.00325);
#34=CIRCLE('',#741,0.00325);
#35=CIRCLE('',#742,0.00325);
#36=CIRCLE('',#744,0.00325);
#37=CIRCLE('',#745,0.00325);
#38=CIRCLE('',#747,0.005);
#39=CIRCLE('',#748,0.005);
#40=CIRCLE('',#750,0.00325);
#41=CIRCLE('',#751,0.00325);
#42=CIRCLE('',#753,0.00325);
#43=CIRCLE('',#754,0.00325);
#44=CIRCLE('',#756,0.00325);
#45=CIRCLE('',#757,0.00325);
#46=CIRCLE('',#759,0.00325);
#47=CIRCLE('',#760,0.00325);
#48=CIRCLE('',#762,0.00325);
#49=CIRCLE('',#763,0.00325);
#50=CIRCLE('',#765,0.0309770653878489);
#51=CIRCLE('',#766,0.0309770653878489);
#52=CIRCLE('',#768,0.0309770653878489);
#53=CIRCLE('',#769,0.0309770653878489);
#54=CYLINDRICAL_SURFACE('',#698,0.005);
#55=CYLINDRICAL_SURFACE('',#702,0.005);
#56=CYLINDRICAL_SURFACE('',#706,0.005);
#57=CYLINDRICAL_SURFACE('',#710,0.005);
#58=CYLINDRICAL_SURFACE('',#714,0.005);
#59=CYLINDRICAL_SURFACE('',#718,0.005);
#60=CYLINDRICAL_SURFACE('',#724,0.005);
#61=CYLINDRICAL_SURFACE('',#728,0.00325);
#62=CYLINDRICAL_SURFACE('',#731,0.00325);
#63=CYLINDRICAL_SURFACE('',#734,0.00325);
#64=CYLINDRICAL_SURFACE('',#737,0.00325);
#65=CYLINDRICAL_SURFACE('',#740,0.00325);
#66=CYLINDRICAL_SURFACE('',#743,0.00325);
#67=CYLINDRICAL_SURFACE('',#746,0.005);
#68=CYLINDRICAL_SURFACE('',#749,0.00325);
#69=CYLINDRICAL_SURFACE('',#752,0.00325);
#70=CYLINDRICAL_SURFACE('',#755,0.00325);
#71=CYLINDRICAL_SURFACE('',#758,0.00325);
#72=CYLINDRICAL_SURFACE('',#761,0.00325);
#73=CYLINDRICAL_SURFACE('',#770,0.0309770653878489);
#74=CYLINDRICAL_SURFACE('',#771,0.0309770653878489);
#75=ORIENTED_EDGE('',*,*,#251,.T.);
#76=ORIENTED_EDGE('',*,*,#252,.T.);
#77=ORIENTED_EDGE('',*,*,#253,.F.);
#78=ORIENTED_EDGE('',*,*,#254,.T.);
#79=ORIENTED_EDGE('',*,*,#255,.T.);
#80=ORIENTED_EDGE('',*,*,#256,.T.);
#81=ORIENTED_EDGE('',*,*,#257,.F.);
#82=ORIENTED_EDGE('',*,*,#258,.F.);
#83=ORIENTED_EDGE('',*,*,#259,.F.);
#84=ORIENTED_EDGE('',*,*,#260,.F.);
#85=ORIENTED_EDGE('',*,*,#261,.T.);
#86=ORIENTED_EDGE('',*,*,#258,.T.);
#87=ORIENTED_EDGE('',*,*,#262,.T.);
#88=ORIENTED_EDGE('',*,*,#263,.F.);
#89=ORIENTED_EDGE('',*,*,#264,.F.);
#90=ORIENTED_EDGE('',*,*,#260,.T.);
#91=ORIENTED_EDGE('',*,*,#265,.T.);
#92=ORIENTED_EDGE('',*,*,#266,.F.);
#93=ORIENTED_EDGE('',*,*,#267,.F.);
#94=ORIENTED_EDGE('',*,*,#263,.T.);
#95=ORIENTED_EDGE('',*,*,#268,.T.);
#96=ORIENTED_EDGE('',*,*,#269,.F.);
#97=ORIENTED_EDGE('',*,*,#270,.F.);
#98=ORIENTED_EDGE('',*,*,#266,.T.);
#99=ORIENTED_EDGE('',*,*,#271,.T.);
#100=ORIENTED_EDGE('',*,*,#272,.F.);
#101=ORIENTED_EDGE('',*,*,#273,.F.);
#102=ORIENTED_EDGE('',*,*,#269,.T.);
#103=ORIENTED_EDGE('',*,*,#274,.F.);
#104=ORIENTED_EDGE('',*,*,#275,.F.);
#105=ORIENTED_EDGE('',*,*,#276,.T.);
#106=ORIENTED_EDGE('',*,*,#272,.T.);
#107=ORIENTED_EDGE('',*,*,#277,.T.);
#108=ORIENTED_EDGE('',*,*,#278,.F.);
#109=ORIENTED_EDGE('',*,*,#279,.F.);
#110=ORIENTED_EDGE('',*,*,#275,.T.);
#111=ORIENTED_EDGE('',*,*,#280,.F.);
#112=ORIENTED_EDGE('',*,*,#281,.F.);
#113=ORIENTED_EDGE('',*,*,#282,.T.);
#114=ORIENTED_EDGE('',*,*,#278,.T.);
#115=ORIENTED_EDGE('',*,*,#283,.T.);
#116=ORIENTED_EDGE('',*,*,#284,.F.);
#117=ORIENTED_EDGE('',*,*,#285,.F.);
#118=ORIENTED_EDGE('',*,*,#281,.T.);
#119=ORIENTED_EDGE('',*,*,#286,.T.);
#120=ORIENTED_EDGE('',*,*,#287,.F.);
#121=ORIENTED_EDGE('',*,*,#288,.F.);
#122=ORIENTED_EDGE('',*,*,#284,.T.);
#123=ORIENTED_EDGE('',*,*,#289,.F.);
#124=ORIENTED_EDGE('',*,*,#290,.F.);
#125=ORIENTED_EDGE('',*,*,#291,.T.);
#126=ORIENTED_EDGE('',*,*,#287,.T.);
#127=ORIENTED_EDGE('',*,*,#292,.T.);
#128=ORIENTED_EDGE('',*,*,#293,.F.);
#129=ORIENTED_EDGE('',*,*,#294,.F.);
#130=ORIENTED_EDGE('',*,*,#290,.T.);
#131=ORIENTED_EDGE('',*,*,#295,.F.);
#132=ORIENTED_EDGE('',*,*,#296,.F.);
#133=ORIENTED_EDGE('',*,*,#297,.T.);
#134=ORIENTED_EDGE('',*,*,#293,.T.);
#135=ORIENTED_EDGE('',*,*,#298,.F.);
#136=ORIENTED_EDGE('',*,*,#299,.T.);
#137=ORIENTED_EDGE('',*,*,#300,.T.);
#138=ORIENTED_EDGE('',*,*,#296,.T.);
#139=ORIENTED_EDGE('',*,*,#301,.F.);
#140=ORIENTED_EDGE('',*,*,#302,.T.);
#141=ORIENTED_EDGE('',*,*,#303,.T.);
#142=ORIENTED_EDGE('',*,*,#304,.F.);
#143=ORIENTED_EDGE('',*,*,#305,.T.);
#144=ORIENTED_EDGE('',*,*,#306,.F.);
#145=ORIENTED_EDGE('',*,*,#307,.F.);
#146=ORIENTED_EDGE('',*,*,#304,.T.);
#147=ORIENTED_EDGE('',*,*,#308,.T.);
#148=ORIENTED_EDGE('',*,*,#309,.F.);
#149=ORIENTED_EDGE('',*,*,#310,.F.);
#150=ORIENTED_EDGE('',*,*,#306,.T.);
#151=ORIENTED_EDGE('',*,*,#311,.T.);
#152=ORIENTED_EDGE('',*,*,#312,.F.);
#153=ORIENTED_EDGE('',*,*,#313,.F.);
#154=ORIENTED_EDGE('',*,*,#314,.T.);
#155=ORIENTED_EDGE('',*,*,#315,.T.);
#156=ORIENTED_EDGE('',*,*,#316,.F.);
#157=ORIENTED_EDGE('',*,*,#317,.F.);
#158=ORIENTED_EDGE('',*,*,#318,.T.);
#159=ORIENTED_EDGE('',*,*,#319,.T.);
#160=ORIENTED_EDGE('',*,*,#320,.F.);
#161=ORIENTED_EDGE('',*,*,#321,.T.);
#162=ORIENTED_EDGE('',*,*,#322,.F.);
#163=ORIENTED_EDGE('',*,*,#323,.T.);
#164=ORIENTED_EDGE('',*,*,#254,.F.);
#165=ORIENTED_EDGE('',*,*,#324,.F.);
#166=ORIENTED_EDGE('',*,*,#309,.T.);
#167=ORIENTED_EDGE('',*,*,#325,.T.);
#168=ORIENTED_EDGE('',*,*,#326,.F.);
#169=ORIENTED_EDGE('',*,*,#327,.T.);
#170=ORIENTED_EDGE('',*,*,#328,.F.);
#171=ORIENTED_EDGE('',*,*,#329,.T.);
#172=ORIENTED_EDGE('',*,*,#330,.F.);
#173=ORIENTED_EDGE('',*,*,#331,.T.);
#174=ORIENTED_EDGE('',*,*,#332,.F.);
#175=ORIENTED_EDGE('',*,*,#333,.F.);
#176=ORIENTED_EDGE('',*,*,#334,.T.);
#177=ORIENTED_EDGE('',*,*,#331,.F.);
#178=ORIENTED_EDGE('',*,*,#329,.F.);
#179=ORIENTED_EDGE('',*,*,#327,.F.);
#180=ORIENTED_EDGE('',*,*,#325,.F.);
#181=ORIENTED_EDGE('',*,*,#253,.T.);
#182=ORIENTED_EDGE('',*,*,#335,.T.);
#183=ORIENTED_EDGE('',*,*,#255,.F.);
#184=ORIENTED_EDGE('',*,*,#261,.F.);
#185=ORIENTED_EDGE('',*,*,#264,.T.);
#186=ORIENTED_EDGE('',*,*,#267,.T.);
#187=ORIENTED_EDGE('',*,*,#270,.T.);
#188=ORIENTED_EDGE('',*,*,#273,.T.);
#189=ORIENTED_EDGE('',*,*,#276,.F.);
#190=ORIENTED_EDGE('',*,*,#279,.T.);
#191=ORIENTED_EDGE('',*,*,#282,.F.);
#192=ORIENTED_EDGE('',*,*,#285,.T.);
#193=ORIENTED_EDGE('',*,*,#288,.T.);
#194=ORIENTED_EDGE('',*,*,#291,.F.);
#195=ORIENTED_EDGE('',*,*,#294,.T.);
#196=ORIENTED_EDGE('',*,*,#297,.F.);
#197=ORIENTED_EDGE('',*,*,#300,.F.);
#198=ORIENTED_EDGE('',*,*,#336,.T.);
#199=ORIENTED_EDGE('',*,*,#301,.T.);
#200=ORIENTED_EDGE('',*,*,#307,.T.);
#201=ORIENTED_EDGE('',*,*,#310,.T.);
#202=ORIENTED_EDGE('',*,*,#324,.T.);
#203=ORIENTED_EDGE('',*,*,#321,.F.);
#204=ORIENTED_EDGE('',*,*,#319,.F.);
#205=ORIENTED_EDGE('',*,*,#317,.T.);
#206=ORIENTED_EDGE('',*,*,#315,.F.);
#207=ORIENTED_EDGE('',*,*,#313,.T.);
#208=ORIENTED_EDGE('',*,*,#311,.F.);
#209=ORIENTED_EDGE('',*,*,#333,.T.);
#210=ORIENTED_EDGE('',*,*,#332,.T.);
#211=ORIENTED_EDGE('',*,*,#330,.T.);
#212=ORIENTED_EDGE('',*,*,#328,.T.);
#213=ORIENTED_EDGE('',*,*,#326,.T.);
#214=ORIENTED_EDGE('',*,*,#257,.T.);
#215=ORIENTED_EDGE('',*,*,#337,.T.);
#216=ORIENTED_EDGE('',*,*,#251,.F.);
#217=ORIENTED_EDGE('',*,*,#323,.F.);
#218=ORIENTED_EDGE('',*,*,#308,.F.);
#219=ORIENTED_EDGE('',*,*,#305,.F.);
#220=ORIENTED_EDGE('',*,*,#303,.F.);
#221=ORIENTED_EDGE('',*,*,#338,.T.);
#222=ORIENTED_EDGE('',*,*,#298,.T.);
#223=ORIENTED_EDGE('',*,*,#295,.T.);
#224=ORIENTED_EDGE('',*,*,#292,.F.);
#225=ORIENTED_EDGE('',*,*,#289,.T.);
#226=ORIENTED_EDGE('',*,*,#286,.F.);
#227=ORIENTED_EDGE('',*,*,#283,.F.);
#228=ORIENTED_EDGE('',*,*,#280,.T.);
#229=ORIENTED_EDGE('',*,*,#277,.F.);
#230=ORIENTED_EDGE('',*,*,#274,.T.);
#231=ORIENTED_EDGE('',*,*,#271,.F.);
#232=ORIENTED_EDGE('',*,*,#268,.F.);
#233=ORIENTED_EDGE('',*,*,#265,.F.);
#234=ORIENTED_EDGE('',*,*,#262,.F.);
#235=ORIENTED_EDGE('',*,*,#259,.T.);
#236=ORIENTED_EDGE('',*,*,#322,.T.);
#237=ORIENTED_EDGE('',*,*,#320,.T.);
#238=ORIENTED_EDGE('',*,*,#318,.F.);
#239=ORIENTED_EDGE('',*,*,#316,.T.);
#240=ORIENTED_EDGE('',*,*,#314,.F.);
#241=ORIENTED_EDGE('',*,*,#312,.T.);
#242=ORIENTED_EDGE('',*,*,#334,.F.);
#243=ORIENTED_EDGE('',*,*,#335,.F.);
#244=ORIENTED_EDGE('',*,*,#252,.F.);
#245=ORIENTED_EDGE('',*,*,#337,.F.);
#246=ORIENTED_EDGE('',*,*,#256,.F.);
#247=ORIENTED_EDGE('',*,*,#336,.F.);
#248=ORIENTED_EDGE('',*,*,#299,.F.);
#249=ORIENTED_EDGE('',*,*,#338,.F.);
#250=ORIENTED_EDGE('',*,*,#302,.F.);
#251=EDGE_CURVE('',#339,#340,#405,.T.);
#252=EDGE_CURVE('',#340,#341,#406,.F.);
#253=EDGE_CURVE('',#342,#341,#407,.T.);
#254=EDGE_CURVE('',#342,#339,#408,.T.);
#255=EDGE_CURVE('',#343,#344,#409,.T.);
#256=EDGE_CURVE('',#344,#345,#410,.T.);
#257=EDGE_CURVE('',#346,#345,#411,.T.);
#258=EDGE_CURVE('',#343,#346,#412,.T.);
#259=EDGE_CURVE('',#347,#346,#413,.T.);
#260=EDGE_CURVE('',#348,#347,#414,.T.);
#261=EDGE_CURVE('',#348,#343,#415,.T.);
#262=EDGE_CURVE('',#347,#349,#12,.T.);
#263=EDGE_CURVE('',#350,#349,#416,.T.);
#264=EDGE_CURVE('',#348,#350,#13,.T.);
#265=EDGE_CURVE('',#349,#351,#417,.T.);
#266=EDGE_CURVE('',#352,#351,#418,.T.);
#267=EDGE_CURVE('',#350,#352,#419,.T.);
#268=EDGE_CURVE('',#351,#353,#14,.T.);
#269=EDGE_CURVE('',#354,#353,#420,.T.);
#270=EDGE_CURVE('',#352,#354,#15,.T.);
#271=EDGE_CURVE('',#353,#355,#421,.T.);
#272=EDGE_CURVE('',#356,#355,#422,.T.);
#273=EDGE_CURVE('',#354,#356,#423,.T.);
#274=EDGE_CURVE('',#357,#355,#16,.T.);
#275=EDGE_CURVE('',#358,#357,#424,.T.);
#276=EDGE_CURVE('',#358,#356,#17,.T.);
#277=EDGE_CURVE('',#357,#359,#425,.T.);
#278=EDGE_CURVE('',#360,#359,#426,.T.);
#279=EDGE_CURVE('',#358,#360,#427,.T.);
#280=EDGE_CURVE('',#361,#359,#18,.T.);
#281=EDGE_CURVE('',#362,#361,#428,.T.);
#282=EDGE_CURVE('',#362,#360,#19,.T.);
#283=EDGE_CURVE('',#361,#363,#429,.T.);
#284=EDGE_CURVE('',#364,#363,#430,.T.);
#285=EDGE_CURVE('',#362,#364,#431,.T.);
#286=EDGE_CURVE('',#363,#365,#20,.T.);
#287=EDGE_CURVE('',#366,#365,#432,.T.);
#288=EDGE_CURVE('',#364,#366,#21,.T.);
#289=EDGE_CURVE('',#367,#365,#433,.T.);
#290=EDGE_CURVE('',#368,#367,#434,.T.);
#291=EDGE_CURVE('',#368,#366,#435,.T.);
#292=EDGE_CURVE('',#367,#369,#22,.T.);
#293=EDGE_CURVE('',#370,#369,#436,.T.);
#294=EDGE_CURVE('',#368,#370,#23,.T.);
#295=EDGE_CURVE('',#371,#369,#437,.T.);
#296=EDGE_CURVE('',#372,#371,#438,.T.);
#297=EDGE_CURVE('',#372,#370,#439,.T.);
#298=EDGE_CURVE('',#373,#371,#440,.T.);
#299=EDGE_CURVE('',#373,#374,#441,.F.);
#300=EDGE_CURVE('',#374,#372,#442,.T.);
#301=EDGE_CURVE('',#375,#376,#443,.T.);
#302=EDGE_CURVE('',#375,#377,#444,.T.);
#303=EDGE_CURVE('',#377,#378,#445,.T.);
#304=EDGE_CURVE('',#376,#378,#446,.T.);
#305=EDGE_CURVE('',#378,#379,#24,.T.);
#306=EDGE_CURVE('',#380,#379,#447,.T.);
#307=EDGE_CURVE('',#376,#380,#25,.T.);
#308=EDGE_CURVE('',#379,#381,#448,.T.);
#309=EDGE_CURVE('',#382,#381,#449,.T.);
#310=EDGE_CURVE('',#380,#382,#450,.T.);
#311=EDGE_CURVE('',#383,#383,#26,.T.);
#312=EDGE_CURVE('',#384,#384,#27,.T.);
#313=EDGE_CURVE('',#385,#385,#28,.T.);
#314=EDGE_CURVE('',#386,#386,#29,.T.);
#315=EDGE_CURVE('',#387,#387,#30,.T.);
#316=EDGE_CURVE('',#388,#388,#31,.T.);
#317=EDGE_CURVE('',#389,#389,#32,.T.);
#318=EDGE_CURVE('',#390,#390,#33,.T.);
#319=EDGE_CURVE('',#391,#391,#34,.T.);
#320=EDGE_CURVE('',#392,#392,#35,.T.);
#321=EDGE_CURVE('',#393,#393,#36,.T.);
#322=EDGE_CURVE('',#394,#394,#37,.T.);
#323=EDGE_CURVE('',#381,#339,#38,.T.);
#324=EDGE_CURVE('',#382,#342,#39,.T.);
#325=EDGE_CURVE('',#395,#395,#40,.T.);
#326=EDGE_CURVE('',#396,#396,#41,.T.);
#327=EDGE_CURVE('',#397,#397,#42,.T.);
#328=EDGE_CURVE('',#398,#398,#43,.T.);
#329=EDGE_CURVE('',#399,#399,#44,.T.);
#330=EDGE_CURVE('',#400,#400,#45,.T.);
#331=EDGE_CURVE('',#401,#401,#46,.T.);
#332=EDGE_CURVE('',#402,#402,#47,.T.);
#333=EDGE_CURVE('',#403,#403,#48,.T.);
#334=EDGE_CURVE('',#404,#404,#49,.T.);
#335=EDGE_CURVE('',#341,#344,#50,.T.);
#336=EDGE_CURVE('',#374,#375,#51,.T.);
#337=EDGE_CURVE('',#345,#340,#52,.F.);
#338=EDGE_CURVE('',#377,#373,#53,.F.);
#339=VERTEX_POINT('',#977);
#340=VERTEX_POINT('',#978);
#341=VERTEX_POINT('',#980);
#342=VERTEX_POINT('',#982);
#343=VERTEX_POINT('',#986);
#344=VERTEX_POINT('',#987);
#345=VERTEX_POINT('',#989);
#346=VERTEX_POINT('',#991);
#347=VERTEX_POINT('',#995);
#348=VERTEX_POINT('',#997);
#349=VERTEX_POINT('',#1001);
#350=VERTEX_POINT('',#1003);
#351=VERTEX_POINT('',#1007);
#352=VERTEX_POINT('',#1009);
#353=VERTEX_POINT('',#1013);
#354=VERTEX_POINT('',#1015);
#355=VERTEX_POINT('',#1019);
#356=VERTEX_POINT('',#1021);
#357=VERTEX_POINT('',#1025);
#358=VERTEX_POINT('',#1027);
#359=VERTEX_POINT('',#1031);
#360=VERTEX_POINT('',#1033);
#361=VERTEX_POINT('',#1037);
#362=VERTEX_POINT('',#1039);
#363=VERTEX_POINT('',#1043);
#364=VERTEX_POINT('',#1045);
#365=VERTEX_POINT('',#1049);
#366=VERTEX_POINT('',#1051);
#367=VERTEX_POINT('',#1055);
#368=VERTEX_POINT('',#1057);
#369=VERTEX_POINT('',#1061);
#370=VERTEX_POINT('',#1063);
#371=VERTEX_POINT('',#1067);
#372=VERTEX_POINT('',#1069);
#373=VERTEX_POINT('',#1073);
#374=VERTEX_POINT('',#1075);
#375=VERTEX_POINT('',#1079);
#376=VERTEX_POINT('',#1080);
#377=VERTEX_POINT('',#1082);
#378=VERTEX_POINT('',#1084);
#379=VERTEX_POINT('',#1088);
#380=VERTEX_POINT('',#1090);
#381=VERTEX_POINT('',#1094);
#382=VERTEX_POINT('',#1096);
#383=VERTEX_POINT('',#1100);
#384=VERTEX_POINT('',#1102);
#385=VERTEX_POINT('',#1105);
#386=VERTEX_POINT('',#1107);
#387=VERTEX_POINT('',#1110);
#388=VERTEX_POINT('',#1112);
#389=VERTEX_POINT('',#1115);
#390=VERTEX_POINT('',#1117);
#391=VERTEX_POINT('',#1120);
#392=VERTEX_POINT('',#1122);
#393=VERTEX_POINT('',#1125);
#394=VERTEX_POINT('',#1127);
#395=VERTEX_POINT('',#1133);
#396=VERTEX_POINT('',#1135);
#397=VERTEX_POINT('',#1138);
#398=VERTEX_POINT('',#1140);
#399=VERTEX_POINT('',#1143);
#400=VERTEX_POINT('',#1145);
#401=VERTEX_POINT('',#1148);
#402=VERTEX_POINT('',#1150);
#403=VERTEX_POINT('',#1153);
#404=VERTEX_POINT('',#1155);
#405=LINE('',#976,#451);
#406=LINE('',#979,#452);
#407=LINE('',#981,#453);
#408=LINE('',#983,#454);
#409=LINE('',#985,#455);
#410=LINE('',#988,#456);
#411=LINE('',#990,#457);
#412=LINE('',#992,#458);
#413=LINE('',#994,#459);
#414=LINE('',#996,#460);
#415=LINE('',#998,#461);
#416=LINE('',#1002,#462);
#417=LINE('',#1006,#463);
#418=LINE('',#1008,#464);
#419=LINE('',#1010,#465);
#420=LINE('',#1014,#466);
#421=LINE('',#1018,#467);
#422=LINE('',#1020,#468);
#423=LINE('',#1022,#469);
#424=LINE('',#1026,#470);
#425=LINE('',#1030,#471);
#426=LINE('',#1032,#472);
#427=LINE('',#1034,#473);
#428=LINE('',#1038,#474);
#429=LINE('',#1042,#475);
#430=LINE('',#1044,#476);
#431=LINE('',#1046,#477);
#432=LINE('',#1050,#478);
#433=LINE('',#1054,#479);
#434=LINE('',#1056,#480);
#435=LINE('',#1058,#481);
#436=LINE('',#1062,#482);
#437=LINE('',#1066,#483);
#438=LINE('',#1068,#484);
#439=LINE('',#1070,#485);
#440=LINE('',#1072,#486);
#441=LINE('',#1074,#487);
#442=LINE('',#1076,#488);
#443=LINE('',#1078,#489);
#444=LINE('',#1081,#490);
#445=LINE('',#1083,#491);
#446=LINE('',#1085,#492);
#447=LINE('',#1089,#493);
#448=LINE('',#1093,#494);
#449=LINE('',#1095,#495);
#450=LINE('',#1097,#496);
#451=VECTOR('',#776,1.);
#452=VECTOR('',#777,1.);
#453=VECTOR('',#778,1.);
#454=VECTOR('',#779,1.);
#455=VECTOR('',#782,1.);
#456=VECTOR('',#783,1.);
#457=VECTOR('',#784,1.);
#458=VECTOR('',#785,1.);
#459=VECTOR('',#788,1.);
#460=VECTOR('',#789,1.);
#461=VECTOR('',#790,1.);
#462=VECTOR('',#795,1.);
#463=VECTOR('',#800,1.);
#464=VECTOR('',#801,1.);
#465=VECTOR('',#802,1.);
#466=VECTOR('',#807,1.);
#467=VECTOR('',#812,1.);
#468=VECTOR('',#813,1.);
#469=VECTOR('',#814,1.);
#470=VECTOR('',#819,1.);
#471=VECTOR('',#824,1.);
#472=VECTOR('',#825,1.);
#473=VECTOR('',#826,1.);
#474=VECTOR('',#831,1.);
#475=VECTOR('',#836,1.);
#476=VECTOR('',#837,1.);
#477=VECTOR('',#838,1.);
#478=VECTOR('',#843,1.);
#479=VECTOR('',#848,1.);
#480=VECTOR('',#849,1.);
#481=VECTOR('',#850,1.);
#482=VECTOR('',#855,1.);
#483=VECTOR('',#860,1.);
#484=VECTOR('',#861,1.);
#485=VECTOR('',#862,1.);
#486=VECTOR('',#865,1.);
#487=VECTOR('',#866,1.);
#488=VECTOR('',#867,1.);
#489=VECTOR('',#870,1.);
#490=VECTOR('',#871,1.);
#491=VECTOR('',#872,1.);
#492=VECTOR('',#873,1.);
#493=VECTOR('',#878,1.);
#494=VECTOR('',#883,1.);
#495=VECTOR('',#884,1.);
#496=VECTOR('',#885,1.);
#497=EDGE_LOOP('',(#75,#76,#77,#78));
#498=EDGE_LOOP('',(#79,#80,#81,#82));
#499=EDGE_LOOP('',(#83,#84,#85,#86));
#500=EDGE_LOOP('',(#87,#88,#89,#90));
#501=EDGE_LOOP('',(#91,#92,#93,#94));
#502=EDGE_LOOP('',(#95,#96,#97,#98));
#503=EDGE_LOOP('',(#99,#100,#101,#102));
#504=EDGE_LOOP('',(#103,#104,#105,#106));
#505=EDGE_LOOP('',(#107,#108,#109,#110));
#506=EDGE_LOOP('',(#111,#112,#113,#114));
#507=EDGE_LOOP('',(#115,#116,#117,#118));
#508=EDGE_LOOP('',(#119,#120,#121,#122));
#509=EDGE_LOOP('',(#123,#124,#125,#126));
#510=EDGE_LOOP('',(#127,#128,#129,#130));
#511=EDGE_LOOP('',(#131,#132,#133,#134));
#512=EDGE_LOOP('',(#135,#136,#137,#138));
#513=EDGE_LOOP('',(#139,#140,#141,#142));
#514=EDGE_LOOP('',(#143,#144,#145,#146));
#515=EDGE_LOOP('',(#147,#148,#149,#150));
#516=EDGE_LOOP('',(#151));
#517=EDGE_LOOP('',(#152));
#518=EDGE_LOOP('',(#153));
#519=EDGE_LOOP('',(#154));
#520=EDGE_LOOP('',(#155));
#521=EDGE_LOOP('',(#156));
#522=EDGE_LOOP('',(#157));
#523=EDGE_LOOP('',(#158));
#524=EDGE_LOOP('',(#159));
#525=EDGE_LOOP('',(#160));
#526=EDGE_LOOP('',(#161));
#527=EDGE_LOOP('',(#162));
#528=EDGE_LOOP('',(#163,#164,#165,#166));
#529=EDGE_LOOP('',(#167));
#530=EDGE_LOOP('',(#168));
#531=EDGE_LOOP('',(#169));
#532=EDGE_LOOP('',(#170));
#533=EDGE_LOOP('',(#171));
#534=EDGE_LOOP('',(#172));
#535=EDGE_LOOP('',(#173));
#536=EDGE_LOOP('',(#174));
#537=EDGE_LOOP('',(#175));
#538=EDGE_LOOP('',(#176));
#539=EDGE_LOOP('',(#177));
#540=EDGE_LOOP('',(#178));
#541=EDGE_LOOP('',(#179));
#542=EDGE_LOOP('',(#180));
#543=EDGE_LOOP('',(#181,#182,#183,#184,#185,#186,#187,#188,#189,#190,#191,
#192,#193,#194,#195,#196,#197,#198,#199,#200,#201,#202));
#544=EDGE_LOOP('',(#203));
#545=EDGE_LOOP('',(#204));
#546=EDGE_LOOP('',(#205));
#547=EDGE_LOOP('',(#206));
#548=EDGE_LOOP('',(#207));
#549=EDGE_LOOP('',(#208));
#550=EDGE_LOOP('',(#209));
#551=EDGE_LOOP('',(#210));
#552=EDGE_LOOP('',(#211));
#553=EDGE_LOOP('',(#212));
#554=EDGE_LOOP('',(#213));
#555=EDGE_LOOP('',(#214,#215,#216,#217,#218,#219,#220,#221,#222,#223,#224,
#225,#226,#227,#228,#229,#230,#231,#232,#233,#234,#235));
#556=EDGE_LOOP('',(#236));
#557=EDGE_LOOP('',(#237));
#558=EDGE_LOOP('',(#238));
#559=EDGE_LOOP('',(#239));
#560=EDGE_LOOP('',(#240));
#561=EDGE_LOOP('',(#241));
#562=EDGE_LOOP('',(#242));
#563=EDGE_LOOP('',(#243,#244,#245,#246));
#564=EDGE_LOOP('',(#247,#248,#249,#250));
#565=FACE_BOUND('',#497,.T.);
#566=FACE_BOUND('',#498,.T.);
#567=FACE_BOUND('',#499,.T.);
#568=FACE_BOUND('',#500,.T.);
#569=FACE_BOUND('',#501,.T.);
#570=FACE_BOUND('',#502,.T.);
#571=FACE_BOUND('',#503,.T.);
#572=FACE_BOUND('',#504,.T.);
#573=FACE_BOUND('',#505,.T.);
#574=FACE_BOUND('',#506,.T.);
#575=FACE_BOUND('',#507,.T.);
#576=FACE_BOUND('',#508,.T.);
#577=FACE_BOUND('',#509,.T.);
#578=FACE_BOUND('',#510,.T.);
#579=FACE_BOUND('',#511,.T.);
#580=FACE_BOUND('',#512,.T.);
#581=FACE_BOUND('',#513,.T.);
#582=FACE_BOUND('',#514,.T.);
#583=FACE_BOUND('',#515,.T.);
#584=FACE_BOUND('',#516,.T.);
#585=FACE_BOUND('',#517,.T.);
#586=FACE_BOUND('',#518,.T.);
#587=FACE_BOUND('',#519,.T.);
#588=FACE_BOUND('',#520,.T.);
#589=FACE_BOUND('',#521,.T.);
#590=FACE_BOUND('',#522,.T.);
#591=FACE_BOUND('',#523,.T.);
#592=FACE_BOUND('',#524,.T.);
#593=FACE_BOUND('',#525,.T.);
#594=FACE_BOUND('',#526,.T.);
#595=FACE_BOUND('',#527,.T.);
#596=FACE_BOUND('',#528,.T.);
#597=FACE_BOUND('',#529,.T.);
#598=FACE_BOUND('',#530,.T.);
#599=FACE_BOUND('',#531,.T.);
#600=FACE_BOUND('',#532,.T.);
#601=FACE_BOUND('',#533,.T.);
#602=FACE_BOUND('',#534,.T.);
#603=FACE_BOUND('',#535,.T.);
#604=FACE_BOUND('',#536,.T.);
#605=FACE_BOUND('',#537,.T.);
#606=FACE_BOUND('',#538,.T.);
#607=FACE_BOUND('',#539,.T.);
#608=FACE_BOUND('',#540,.T.);
#609=FACE_BOUND('',#541,.T.);
#610=FACE_BOUND('',#542,.T.);
#611=FACE_BOUND('',#543,.T.);
#612=FACE_BOUND('',#544,.T.);
#613=FACE_BOUND('',#545,.T.);
#614=FACE_BOUND('',#546,.T.);
#615=FACE_BOUND('',#547,.T.);
#616=FACE_BOUND('',#548,.T.);
#617=FACE_BOUND('',#549,.T.);
#618=FACE_BOUND('',#550,.T.);
#619=FACE_BOUND('',#551,.T.);
#620=FACE_BOUND('',#552,.T.);
#621=FACE_BOUND('',#553,.T.);
#622=FACE_BOUND('',#554,.T.);
#623=FACE_BOUND('',#555,.T.);
#624=FACE_BOUND('',#556,.T.);
#625=FACE_BOUND('',#557,.T.);
#626=FACE_BOUND('',#558,.T.);
#627=FACE_BOUND('',#559,.T.);
#628=FACE_BOUND('',#560,.T.);
#629=FACE_BOUND('',#561,.T.);
#630=FACE_BOUND('',#562,.T.);
#631=FACE_BOUND('',#563,.T.);
#632=FACE_BOUND('',#564,.T.);
#633=PLANE('',#695);
#634=PLANE('',#696);
#635=PLANE('',#697);
#636=PLANE('',#701);
#637=PLANE('',#705);
#638=PLANE('',#709);
#639=PLANE('',#713);
#640=PLANE('',#717);
#641=PLANE('',#721);
#642=PLANE('',#722);
#643=PLANE('',#723);
#644=PLANE('',#727);
#645=PLANE('',#764);
#646=PLANE('',#767);
#647=ADVANCED_FACE('',(#565),#633,.F.);
#648=ADVANCED_FACE('',(#566),#634,.T.);
#649=ADVANCED_FACE('',(#567),#635,.T.);
#650=ADVANCED_FACE('',(#568),#54,.T.);
#651=ADVANCED_FACE('',(#569),#636,.F.);
#652=ADVANCED_FACE('',(#570),#55,.T.);
#653=ADVANCED_FACE('',(#571),#637,.F.);
#654=ADVANCED_FACE('',(#572),#56,.F.);
#655=ADVANCED_FACE('',(#573),#638,.F.);
#656=ADVANCED_FACE('',(#574),#57,.F.);
#657=ADVANCED_FACE('',(#575),#639,.F.);
#658=ADVANCED_FACE('',(#576),#58,.T.);
#659=ADVANCED_FACE('',(#577),#640,.T.);
#660=ADVANCED_FACE('',(#578),#59,.T.);
#661=ADVANCED_FACE('',(#579),#641,.T.);
#662=ADVANCED_FACE('',(#580),#642,.T.);
#663=ADVANCED_FACE('',(#581),#643,.F.);
#664=ADVANCED_FACE('',(#582),#60,.T.);
#665=ADVANCED_FACE('',(#583),#644,.F.);
#666=ADVANCED_FACE('',(#584,#585),#61,.F.);
#667=ADVANCED_FACE('',(#586,#587),#62,.F.);
#668=ADVANCED_FACE('',(#588,#589),#63,.F.);
#669=ADVANCED_FACE('',(#590,#591),#64,.F.);
#670=ADVANCED_FACE('',(#592,#593),#65,.F.);
#671=ADVANCED_FACE('',(#594,#595),#66,.F.);
#672=ADVANCED_FACE('',(#596),#67,.T.);
#673=ADVANCED_FACE('',(#597,#598),#68,.F.);
#674=ADVANCED_FACE('',(#599,#600),#69,.F.);
#675=ADVANCED_FACE('',(#601,#602),#70,.F.);
#676=ADVANCED_FACE('',(#603,#604),#71,.F.);
#677=ADVANCED_FACE('',(#605,#606),#72,.F.);
#678=ADVANCED_FACE('',(#607,#608,#609,#610,#611,#612,#613,#614,#615,#616,
#617,#618),#645,.T.);
#679=ADVANCED_FACE('',(#619,#620,#621,#622,#623,#624,#625,#626,#627,#628,
#629,#630),#646,.F.);
#680=ADVANCED_FACE('',(#631),#73,.T.);
#681=ADVANCED_FACE('',(#632),#74,.T.);
#682=CLOSED_SHELL('',(#647,#648,#649,#650,#651,#652,#653,#654,#655,#656,
#657,#658,#659,#660,#661,#662,#663,#664,#665,#666,#667,#668,#669,#670,#671,
#672,#673,#674,#675,#676,#677,#678,#679,#680,#681));
#683=STYLED_ITEM('',(#684),#691);
#684=PRESENTATION_STYLE_ASSIGNMENT((#685));
#685=SURFACE_STYLE_USAGE(.BOTH.,#686);
#686=SURFACE_SIDE_STYLE('',(#687));
#687=SURFACE_STYLE_FILL_AREA(#688);
#688=FILL_AREA_STYLE('',(#689));
#689=FILL_AREA_STYLE_COLOUR('',#690);
#690=COLOUR_RGB('',0.615686274509804,0.811764705882353,0.929411764705882);
#691=MANIFOLD_SOLID_BREP('Part 1',#682);
#692=SHAPE_DEFINITION_REPRESENTATION(#1170,#693);
#693=SHAPE_REPRESENTATION('Part 1',(#694),#1165);
#694=AXIS2_PLACEMENT_3D('',#974,#772,#773);
#695=AXIS2_PLACEMENT_3D('',#975,#774,#775);
#696=AXIS2_PLACEMENT_3D('',#984,#780,#781);
#697=AXIS2_PLACEMENT_3D('',#993,#786,#787);
#698=AXIS2_PLACEMENT_3D('',#999,#791,#792);
#699=AXIS2_PLACEMENT_3D('',#1000,#793,#794);
#700=AXIS2_PLACEMENT_3D('',#1004,#796,#797);
#701=AXIS2_PLACEMENT_3D('',#1005,#798,#799);
#702=AXIS2_PLACEMENT_3D('',#1011,#803,#804);
#703=AXIS2_PLACEMENT_3D('',#1012,#805,#806);
#704=AXIS2_PLACEMENT_3D('',#1016,#808,#809);
#705=AXIS2_PLACEMENT_3D('',#1017,#810,#811);
#706=AXIS2_PLACEMENT_3D('',#1023,#815,#816);
#707=AXIS2_PLACEMENT_3D('',#1024,#817,#818);
#708=AXIS2_PLACEMENT_3D('',#1028,#820,#821);
#709=AXIS2_PLACEMENT_3D('',#1029,#822,#823);
#710=AXIS2_PLACEMENT_3D('',#1035,#827,#828);
#711=AXIS2_PLACEMENT_3D('',#1036,#829,#830);
#712=AXIS2_PLACEMENT_3D('',#1040,#832,#833);
#713=AXIS2_PLACEMENT_3D('',#1041,#834,#835);
#714=AXIS2_PLACEMENT_3D('',#1047,#839,#840);
#715=AXIS2_PLACEMENT_3D('',#1048,#841,#842);
#716=AXIS2_PLACEMENT_3D('',#1052,#844,#845);
#717=AXIS2_PLACEMENT_3D('',#1053,#846,#847);
#718=AXIS2_PLACEMENT_3D('',#1059,#851,#852);
#719=AXIS2_PLACEMENT_3D('',#1060,#853,#854);
#720=AXIS2_PLACEMENT_3D('',#1064,#856,#857);
#721=AXIS2_PLACEMENT_3D('',#1065,#858,#859);
#722=AXIS2_PLACEMENT_3D('',#1071,#863,#864);
#723=AXIS2_PLACEMENT_3D('',#1077,#868,#869);
#724=AXIS2_PLACEMENT_3D('',#1086,#874,#875);
#725=AXIS2_PLACEMENT_3D('',#1087,#876,#877);
#726=AXIS2_PLACEMENT_3D('',#1091,#879,#880);
#727=AXIS2_PLACEMENT_3D('',#1092,#881,#882);
#728=AXIS2_PLACEMENT_3D('',#1098,#886,#887);
#729=AXIS2_PLACEMENT_3D('',#1099,#888,#889);
#730=AXIS2_PLACEMENT_3D('',#1101,#890,#891);
#731=AXIS2_PLACEMENT_3D('',#1103,#892,#893);
#732=AXIS2_PLACEMENT_3D('',#1104,#894,#895);
#733=AXIS2_PLACEMENT_3D('',#1106,#896,#897);
#734=AXIS2_PLACEMENT_3D('',#1108,#898,#899);
#735=AXIS2_PLACEMENT_3D('',#1109,#900,#901);
#736=AXIS2_PLACEMENT_3D('',#1111,#902,#903);
#737=AXIS2_PLACEMENT_3D('',#1113,#904,#905);
#738=AXIS2_PLACEMENT_3D('',#1114,#906,#907);
#739=AXIS2_PLACEMENT_3D('',#1116,#908,#909);
#740=AXIS2_PLACEMENT_3D('',#1118,#910,#911);
#741=AXIS2_PLACEMENT_3D('',#1119,#912,#913);
#742=AXIS2_PLACEMENT_3D('',#1121,#914,#915);
#743=AXIS2_PLACEMENT_3D('',#1123,#916,#917);
#744=AXIS2_PLACEMENT_3D('',#1124,#918,#919);
#745=AXIS2_PLACEMENT_3D('',#1126,#920,#921);
#746=AXIS2_PLACEMENT_3D('',#1128,#922,#923);
#747=AXIS2_PLACEMENT_3D('',#1129,#924,#925);
#748=AXIS2_PLACEMENT_3D('',#1130,#926,#927);
#749=AXIS2_PLACEMENT_3D('',#1131,#928,#929);
#750=AXIS2_PLACEMENT_3D('',#1132,#930,#931);
#751=AXIS2_PLACEMENT_3D('',#1134,#932,#933);
#752=AXIS2_PLACEMENT_3D('',#1136,#934,#935);
#753=AXIS2_PLACEMENT_3D('',#1137,#936,#937);
#754=AXIS2_PLACEMENT_3D('',#1139,#938,#939);
#755=AXIS2_PLACEMENT_3D('',#1141,#940,#941);
#756=AXIS2_PLACEMENT_3D('',#1142,#942,#943);
#757=AXIS2_PLACEMENT_3D('',#1144,#944,#945);
#758=AXIS2_PLACEMENT_3D('',#1146,#946,#947);
#759=AXIS2_PLACEMENT_3D('',#1147,#948,#949);
#760=AXIS2_PLACEMENT_3D('',#1149,#950,#951);
#761=AXIS2_PLACEMENT_3D('',#1151,#952,#953);
#762=AXIS2_PLACEMENT_3D('',#1152,#954,#955);
#763=AXIS2_PLACEMENT_3D('',#1154,#956,#957);
#764=AXIS2_PLACEMENT_3D('',#1156,#958,#959);
#765=AXIS2_PLACEMENT_3D('',#1157,#960,#961);
#766=AXIS2_PLACEMENT_3D('',#1158,#962,#963);
#767=AXIS2_PLACEMENT_3D('',#1159,#964,#965);
#768=AXIS2_PLACEMENT_3D('',#1160,#966,#967);
#769=AXIS2_PLACEMENT_3D('',#1161,#968,#969);
#770=AXIS2_PLACEMENT_3D('',#1162,#970,#971);
#771=AXIS2_PLACEMENT_3D('',#1163,#972,#973);
#772=DIRECTION('',(0.,0.,1.));
#773=DIRECTION('',(1.,0.,0.));
#774=DIRECTION('',(-1.,0.,0.));
#775=DIRECTION('',(0.,0.,1.));
#776=DIRECTION('',(0.,1.,0.));
#777=DIRECTION('',(0.,0.,-1.));
#778=DIRECTION('',(0.,1.,0.));
#779=DIRECTION('',(0.,0.,-1.));
#780=DIRECTION('',(0.662412549466214,0.749139248944861,0.));
#781=DIRECTION('',(-0.749139248944861,0.662412549466214,0.));
#782=DIRECTION('',(0.749139248944861,-0.662412549466214,0.));
#783=DIRECTION('',(0.,0.,-1.));
#784=DIRECTION('',(0.749139248944861,-0.662412549466214,0.));
#785=DIRECTION('',(0.,0.,-1.));
#786=DIRECTION('',(1.,0.,0.));
#787=DIRECTION('',(0.,0.,-1.));
#788=DIRECTION('',(0.,-1.,0.));
#789=DIRECTION('',(0.,0.,-1.));
#790=DIRECTION('',(0.,-1.,0.));
#791=DIRECTION('',(0.,0.,-1.));
#792=DIRECTION('',(-1.,0.,0.));
#793=DIRECTION('',(0.,0.,1.));
#794=DIRECTION('',(1.,0.,0.));
#795=DIRECTION('',(0.,0.,-1.));
#796=DIRECTION('',(0.,0.,1.));
#797=DIRECTION('',(1.,0.,0.));
#798=DIRECTION('',(0.,-1.,0.));
#799=DIRECTION('',(0.,0.,-1.));
#800=DIRECTION('',(-1.,0.,0.));
#801=DIRECTION('',(0.,0.,-1.));
#802=DIRECTION('',(-1.,0.,0.));
#803=DIRECTION('',(0.,0.,-1.));
#804=DIRECTION('',(-1.,0.,0.));
#805=DIRECTION('',(0.,0.,1.));
#806=DIRECTION('',(1.,0.,0.));
#807=DIRECTION('',(0.,0.,-1.));
#808=DIRECTION('',(0.,0.,1.));
#809=DIRECTION('',(1.,0.,0.));
#810=DIRECTION('',(1.,0.,0.));
#811=DIRECTION('',(0.,0.,-1.));
#812=DIRECTION('',(0.,-1.,0.));
#813=DIRECTION('',(0.,0.,-1.));
#814=DIRECTION('',(0.,-1.,0.));
#815=DIRECTION('',(0.,0.,-1.));
#816=DIRECTION('',(-1.,0.,0.));
#817=DIRECTION('',(0.,0.,1.));
#818=DIRECTION('',(1.,0.,0.));
#819=DIRECTION('',(0.,0.,-1.));
#820=DIRECTION('',(0.,0.,1.));
#821=DIRECTION('',(1.,0.,0.));
#822=DIRECTION('',(0.,-1.,0.));
#823=DIRECTION('',(0.,0.,-1.));
#824=DIRECTION('',(-1.,0.,0.));
#825=DIRECTION('',(0.,0.,-1.));
#826=DIRECTION('',(-1.,0.,0.));
#827=DIRECTION('',(0.,0.,-1.));
#828=DIRECTION('',(-1.,0.,0.));
#829=DIRECTION('',(0.,0.,1.));
#830=DIRECTION('',(1.,0.,0.));
#831=DIRECTION('',(0.,0.,-1.));
#832=DIRECTION('',(0.,0.,1.));
#833=DIRECTION('',(1.,0.,0.));
#834=DIRECTION('',(-1.,0.,0.));
#835=DIRECTION('',(0.,0.,1.));
#836=DIRECTION('',(0.,1.,0.));
#837=DIRECTION('',(0.,0.,-1.));
#838=DIRECTION('',(0.,1.,0.));
#839=DIRECTION('',(0.,0.,-1.));
#840=DIRECTION('',(-1.,0.,0.));
#841=DIRECTION('',(0.,0.,1.));
#842=DIRECTION('',(1.,0.,0.));
#843=DIRECTION('',(0.,0.,-1.));
#844=DIRECTION('',(0.,0.,1.));
#845=DIRECTION('',(1.,0.,0.));
#846=DIRECTION('',(-1.38777878078145E-15,1.,0.));
#847=DIRECTION('',(-1.,-1.38777878078145E-15,0.));
#848=DIRECTION('',(1.,1.38777878078145E-15,0.));
#849=DIRECTION('',(0.,0.,-1.));
#850=DIRECTION('',(1.,1.38777878078145E-15,0.));
#851=DIRECTION('',(0.,0.,-1.));
#852=DIRECTION('',(-1.,0.,0.));
#853=DIRECTION('',(0.,0.,1.));
#854=DIRECTION('',(1.,0.,0.));
#855=DIRECTION('',(0.,0.,-1.));
#856=DIRECTION('',(0.,0.,1.));
#857=DIRECTION('',(1.,0.,0.));
#858=DIRECTION('',(-1.,0.,0.));
#859=DIRECTION('',(0.,0.,1.));
#860=DIRECTION('',(0.,1.,0.));
#861=DIRECTION('',(0.,0.,-1.));
#862=DIRECTION('',(0.,1.,0.));
#863=DIRECTION('',(-0.662412549466214,0.749139248944861,0.));
#864=DIRECTION('',(-0.749139248944861,-0.662412549466214,0.));
#865=DIRECTION('',(0.749139248944861,0.662412549466214,0.));
#866=DIRECTION('',(0.,0.,-1.));
#867=DIRECTION('',(0.749139248944861,0.662412549466214,0.));
#868=DIRECTION('',(1.,0.,0.));
#869=DIRECTION('',(0.,0.,-1.));
#870=DIRECTION('',(0.,-1.,0.));
#871=DIRECTION('',(0.,0.,-1.));
#872=DIRECTION('',(0.,-1.,0.));
#873=DIRECTION('',(0.,0.,-1.));
#874=DIRECTION('',(0.,0.,-1.));
#875=DIRECTION('',(-1.,0.,0.));
#876=DIRECTION('',(0.,0.,1.));
#877=DIRECTION('',(1.,0.,0.));
#878=DIRECTION('',(0.,0.,-1.));
#879=DIRECTION('',(0.,0.,1.));
#880=DIRECTION('',(1.,0.,0.));
#881=DIRECTION('',(-1.44372304892738E-16,1.,0.));
#882=DIRECTION('',(-1.,-1.44372304892738E-16,0.));
#883=DIRECTION('',(1.,1.44372304892738E-16,0.));
#884=DIRECTION('',(0.,0.,-1.));
#885=DIRECTION('',(1.,1.44372304892738E-16,0.));
#886=DIRECTION('',(0.,0.,-1.));
#887=DIRECTION('',(-1.,0.,0.));
#888=DIRECTION('',(0.,0.,1.));
#889=DIRECTION('',(1.,0.,0.));
#890=DIRECTION('',(0.,0.,1.));
#891=DIRECTION('',(1.,0.,0.));
#892=DIRECTION('',(0.,0.,-1.));
#893=DIRECTION('',(-1.,0.,0.));
#894=DIRECTION('',(0.,0.,-1.));
#895=DIRECTION('',(1.,0.,0.));
#896=DIRECTION('',(0.,0.,-1.));
#897=DIRECTION('',(1.,0.,0.));
#898=DIRECTION('',(0.,0.,-1.));
#899=DIRECTION('',(-1.,0.,0.));
#900=DIRECTION('',(0.,0.,1.));
#901=DIRECTION('',(1.,0.,0.));
#902=DIRECTION('',(0.,0.,1.));
#903=DIRECTION('',(1.,0.,0.));
#904=DIRECTION('',(0.,0.,-1.));
#905=DIRECTION('',(-1.,0.,0.));
#906=DIRECTION('',(0.,0.,-1.));
#907=DIRECTION('',(1.,0.,0.));
#908=DIRECTION('',(0.,0.,-1.));
#909=DIRECTION('',(1.,0.,0.));
#910=DIRECTION('',(0.,0.,-1.));
#911=DIRECTION('',(-1.,0.,0.));
#912=DIRECTION('',(0.,0.,1.));
#913=DIRECTION('',(1.,0.,0.));
#914=DIRECTION('',(0.,0.,1.));
#915=DIRECTION('',(1.,0.,0.));
#916=DIRECTION('',(0.,0.,-1.));
#917=DIRECTION('',(-1.,0.,0.));
#918=DIRECTION('',(0.,0.,1.));
#919=DIRECTION('',(1.,0.,0.));
#920=DIRECTION('',(0.,0.,1.));
#921=DIRECTION('',(1.,0.,0.));
#922=DIRECTION('',(0.,0.,-1.));
#923=DIRECTION('',(-1.,0.,0.));
#924=DIRECTION('',(0.,0.,1.));
#925=DIRECTION('',(1.,0.,0.));
#926=DIRECTION('',(0.,0.,1.));
#927=DIRECTION('',(1.,0.,0.));
#928=DIRECTION('',(0.,0.,-1.));
#929=DIRECTION('',(-1.,0.,0.));
#930=DIRECTION('',(0.,0.,1.));
#931=DIRECTION('',(1.,0.,0.));
#932=DIRECTION('',(0.,0.,1.));
#933=DIRECTION('',(1.,0.,0.));
#934=DIRECTION('',(0.,0.,-1.));
#935=DIRECTION('',(-1.,0.,0.));
#936=DIRECTION('',(0.,0.,1.));
#937=DIRECTION('',(1.,0.,0.));
#938=DIRECTION('',(0.,0.,1.));
#939=DIRECTION('',(1.,0.,0.));
#940=DIRECTION('',(0.,0.,-1.));
#941=DIRECTION('',(-1.,0.,0.));
#942=DIRECTION('',(0.,0.,1.));
#943=DIRECTION('',(1.,0.,0.));
#944=DIRECTION('',(0.,0.,1.));
#945=DIRECTION('',(1.,0.,0.));
#946=DIRECTION('',(0.,0.,-1.));
#947=DIRECTION('',(-1.,0.,0.));
#948=DIRECTION('',(0.,0.,1.));
#949=DIRECTION('',(1.,0.,0.));
#950=DIRECTION('',(0.,0.,1.));
#951=DIRECTION('',(1.,0.,0.));
#952=DIRECTION('',(0.,0.,-1.));
#953=DIRECTION('',(-1.,0.,0.));
#954=DIRECTION('',(0.,0.,-1.));
#955=DIRECTION('',(1.,0.,0.));
#956=DIRECTION('',(0.,0.,-1.));
#957=DIRECTION('',(1.,0.,0.));
#958=DIRECTION('',(0.,0.,1.));
#959=DIRECTION('',(1.,0.,0.));
#960=DIRECTION('',(0.,0.,1.));
#961=DIRECTION('',(1.,0.,0.));
#962=DIRECTION('',(0.,0.,1.));
#963=DIRECTION('',(1.,0.,0.));
#964=DIRECTION('',(0.,0.,1.));
#965=DIRECTION('',(1.,0.,0.));
#966=DIRECTION('',(0.,0.,1.));
#967=DIRECTION('',(1.,0.,0.));
#968=DIRECTION('',(0.,0.,1.));
#969=DIRECTION('',(1.,0.,0.));
#970=DIRECTION('',(0.,0.,1.));
#971=DIRECTION('',(1.,0.,0.));
#972=DIRECTION('',(0.,0.,1.));
#973=DIRECTION('',(1.,0.,0.));
#974=CARTESIAN_POINT('',(0.,0.,0.));
#975=CARTESIAN_POINT('',(0.19725,-0.09888,0.003));
#976=CARTESIAN_POINT('',(0.19725,-0.09888,0.));
#977=CARTESIAN_POINT('',(0.19725,-0.10638,0.));
#978=CARTESIAN_POINT('',(0.19725,-0.102089312029147,0.));
#979=CARTESIAN_POINT('',(0.19725,-0.102089312029147,0.003));
#980=CARTESIAN_POINT('',(0.19725,-0.102089312029147,0.003));
#981=CARTESIAN_POINT('',(0.19725,-0.09888,0.003));
#982=CARTESIAN_POINT('',(0.19725,-0.10638,0.003));
#983=CARTESIAN_POINT('',(0.19725,-0.10638,0.003));
#984=CARTESIAN_POINT('',(0.136282648720465,-0.03422074527578,0.003));
#985=CARTESIAN_POINT('',(0.136282648720465,-0.03422074527578,0.003));
#986=CARTESIAN_POINT('',(0.07775,0.0175356686626747,0.003));
#987=CARTESIAN_POINT('',(0.186792531470697,-0.0788831765299782,0.003));
#988=CARTESIAN_POINT('',(0.186792531470697,-0.0788831765299782,0.));
#989=CARTESIAN_POINT('',(0.186792531470697,-0.0788831765299782,0.));
#990=CARTESIAN_POINT('',(0.136282648720465,-0.03422074527578,0.));
#991=CARTESIAN_POINT('',(0.07775,0.0175356686626747,0.));
#992=CARTESIAN_POINT('',(0.07775,0.0175356686626747,0.003));
#993=CARTESIAN_POINT('',(0.07775,0.0202028343313373,0.003));
#994=CARTESIAN_POINT('',(0.07775,0.0202028343313373,0.));
#995=CARTESIAN_POINT('',(0.07775,0.02287,0.));
#996=CARTESIAN_POINT('',(0.07775,0.02287,0.003));
#997=CARTESIAN_POINT('',(0.07775,0.02287,0.003));
#998=CARTESIAN_POINT('',(0.07775,0.0202028343313373,0.003));
#999=CARTESIAN_POINT('',(0.07275,0.02287,0.003));
#1000=CARTESIAN_POINT('',(0.07275,0.02287,0.));
#1001=CARTESIAN_POINT('',(0.07275,0.02787,0.));
#1002=CARTESIAN_POINT('',(0.07275,0.02787,0.003));
#1003=CARTESIAN_POINT('',(0.07275,0.02787,0.003));
#1004=CARTESIAN_POINT('',(0.07275,0.02287,0.003));
#1005=CARTESIAN_POINT('',(0.07025,0.02787,0.003));
#1006=CARTESIAN_POINT('',(0.07025,0.02787,0.));
#1007=CARTESIAN_POINT('',(0.06775,0.02787,0.));
#1008=CARTESIAN_POINT('',(0.06775,0.02787,0.003));
#1009=CARTESIAN_POINT('',(0.06775,0.02787,0.003));
#1010=CARTESIAN_POINT('',(0.07025,0.02787,0.003));
#1011=CARTESIAN_POINT('',(0.06775,0.02287,0.003));
#1012=CARTESIAN_POINT('',(0.06775,0.02287,0.));
#1013=CARTESIAN_POINT('',(0.06275,0.02287,0.));
#1014=CARTESIAN_POINT('',(0.06275,0.02287,0.003));
#1015=CARTESIAN_POINT('',(0.06275,0.02287,0.003));
#1016=CARTESIAN_POINT('',(0.06775,0.02287,0.003));
#1017=CARTESIAN_POINT('',(0.06275,-0.01263,0.003));
#1018=CARTESIAN_POINT('',(0.06275,-0.01263,0.));
#1019=CARTESIAN_POINT('',(0.06275,-0.04813,0.));
#1020=CARTESIAN_POINT('',(0.06275,-0.04813,0.003));
#1021=CARTESIAN_POINT('',(0.06275,-0.04813,0.003));
#1022=CARTESIAN_POINT('',(0.06275,-0.01263,0.003));
#1023=CARTESIAN_POINT('',(0.05775,-0.04813,0.003));
#1024=CARTESIAN_POINT('',(0.05775,-0.04813,0.));
#1025=CARTESIAN_POINT('',(0.05775,-0.05313,0.));
#1026=CARTESIAN_POINT('',(0.05775,-0.05313,0.003));
#1027=CARTESIAN_POINT('',(0.05775,-0.05313,0.003));
#1028=CARTESIAN_POINT('',(0.05775,-0.04813,0.003));
#1029=CARTESIAN_POINT('',(-3.46944695195361E-18,-0.05313,0.003));
#1030=CARTESIAN_POINT('',(-3.46944695195361E-18,-0.05313,0.));
#1031=CARTESIAN_POINT('',(-0.05775,-0.05313,0.));
#1032=CARTESIAN_POINT('',(-0.05775,-0.05313,0.003));
#1033=CARTESIAN_POINT('',(-0.05775,-0.05313,0.003));
#1034=CARTESIAN_POINT('',(-3.46944695195361E-18,-0.05313,0.003));
#1035=CARTESIAN_POINT('',(-0.05775,-0.04813,0.003));
#1036=CARTESIAN_POINT('',(-0.05775,-0.04813,0.));
#1037=CARTESIAN_POINT('',(-0.06275,-0.04813,0.));
#1038=CARTESIAN_POINT('',(-0.06275,-0.04813,0.003));
#1039=CARTESIAN_POINT('',(-0.06275,-0.04813,0.003));
#1040=CARTESIAN_POINT('',(-0.05775,-0.04813,0.003));
#1041=CARTESIAN_POINT('',(-0.06275,-0.01263,0.003));
#1042=CARTESIAN_POINT('',(-0.06275,-0.01263,0.));
#1043=CARTESIAN_POINT('',(-0.06275,0.02287,0.));
#1044=CARTESIAN_POINT('',(-0.06275,0.02287,0.003));
#1045=CARTESIAN_POINT('',(-0.06275,0.02287,0.003));
#1046=CARTESIAN_POINT('',(-0.06275,-0.01263,0.003));
#1047=CARTESIAN_POINT('',(-0.06775,0.02287,0.003));
#1048=CARTESIAN_POINT('',(-0.06775,0.02287,0.));
#1049=CARTESIAN_POINT('',(-0.06775,0.02787,0.));
#1050=CARTESIAN_POINT('',(-0.06775,0.02787,0.003));
#1051=CARTESIAN_POINT('',(-0.06775,0.02787,0.003));
#1052=CARTESIAN_POINT('',(-0.06775,0.02287,0.003));
#1053=CARTESIAN_POINT('',(-0.07025,0.02787,0.003));
#1054=CARTESIAN_POINT('',(-0.07025,0.02787,0.));
#1055=CARTESIAN_POINT('',(-0.07275,0.02787,0.));
#1056=CARTESIAN_POINT('',(-0.07275,0.02787,0.003));
#1057=CARTESIAN_POINT('',(-0.07275,0.02787,0.003));
#1058=CARTESIAN_POINT('',(-0.07025,0.02787,0.003));
#1059=CARTESIAN_POINT('',(-0.07275,0.02287,0.003));
#1060=CARTESIAN_POINT('',(-0.07275,0.02287,0.));
#1061=CARTESIAN_POINT('',(-0.07775,0.02287,0.));
#1062=CARTESIAN_POINT('',(-0.07775,0.02287,0.003));
#1063=CARTESIAN_POINT('',(-0.07775,0.02287,0.003));
#1064=CARTESIAN_POINT('',(-0.07275,0.02287,0.003));
#1065=CARTESIAN_POINT('',(-0.07775,0.0202028343313373,0.003));
#1066=CARTESIAN_POINT('',(-0.07775,0.0202028343313373,0.));
#1067=CARTESIAN_POINT('',(-0.07775,0.0175356686626746,0.));
#1068=CARTESIAN_POINT('',(-0.07775,0.0175356686626746,0.003));
#1069=CARTESIAN_POINT('',(-0.07775,0.0175356686626746,0.003));
#1070=CARTESIAN_POINT('',(-0.07775,0.0202028343313373,0.003));
#1071=CARTESIAN_POINT('',(-0.136282648720465,-0.03422074527578,0.003));
#1072=CARTESIAN_POINT('',(-0.136282648720465,-0.03422074527578,0.));
#1073=CARTESIAN_POINT('',(-0.186792531470697,-0.0788831765299782,0.));
#1074=CARTESIAN_POINT('',(-0.186792531470697,-0.0788831765299782,0.003));
#1075=CARTESIAN_POINT('',(-0.186792531470697,-0.0788831765299782,0.003));
#1076=CARTESIAN_POINT('',(-0.136282648720465,-0.03422074527578,0.003));
#1077=CARTESIAN_POINT('',(-0.19725,-0.09888,0.003));
#1078=CARTESIAN_POINT('',(-0.19725,-0.09888,0.003));
#1079=CARTESIAN_POINT('',(-0.19725,-0.102089312029147,0.003));
#1080=CARTESIAN_POINT('',(-0.19725,-0.10638,0.003));
#1081=CARTESIAN_POINT('',(-0.19725,-0.102089312029147,0.));
#1082=CARTESIAN_POINT('',(-0.19725,-0.102089312029147,0.));
#1083=CARTESIAN_POINT('',(-0.19725,-0.09888,0.));
#1084=CARTESIAN_POINT('',(-0.19725,-0.10638,0.));
#1085=CARTESIAN_POINT('',(-0.19725,-0.10638,0.003));
#1086=CARTESIAN_POINT('',(-0.19225,-0.10638,0.003));
#1087=CARTESIAN_POINT('',(-0.19225,-0.10638,0.));
#1088=CARTESIAN_POINT('',(-0.19225,-0.11138,0.));
#1089=CARTESIAN_POINT('',(-0.19225,-0.11138,0.003));
#1090=CARTESIAN_POINT('',(-0.19225,-0.11138,0.003));
#1091=CARTESIAN_POINT('',(-0.19225,-0.10638,0.003));
#1092=CARTESIAN_POINT('',(0.,-0.11138,0.003));
#1093=CARTESIAN_POINT('',(0.,-0.11138,0.));
#1094=CARTESIAN_POINT('',(0.19225,-0.11138,0.));
#1095=CARTESIAN_POINT('',(0.19225,-0.11138,0.003));
#1096=CARTESIAN_POINT('',(0.19225,-0.11138,0.003));
#1097=CARTESIAN_POINT('',(0.,-0.11138,0.003));
#1098=CARTESIAN_POINT('',(0.072,-0.02262,0.003));
#1099=CARTESIAN_POINT('',(0.072,-0.02262,0.003));
#1100=CARTESIAN_POINT('',(0.07525,-0.02262,0.003));
#1101=CARTESIAN_POINT('',(0.072,-0.02262,0.));
#1102=CARTESIAN_POINT('',(0.07525,-0.02262,0.));
#1103=CARTESIAN_POINT('',(-0.072,-0.02262,0.003));
#1104=CARTESIAN_POINT('',(-0.072,-0.02262,0.003));
#1105=CARTESIAN_POINT('',(-0.06875,-0.02262,0.003));
#1106=CARTESIAN_POINT('',(-0.072,-0.02262,0.));
#1107=CARTESIAN_POINT('',(-0.06875,-0.02262,0.));
#1108=CARTESIAN_POINT('',(0.036975,-0.05705,0.003));
#1109=CARTESIAN_POINT('',(0.036975,-0.05705,0.003));
#1110=CARTESIAN_POINT('',(0.040225,-0.05705,0.003));
#1111=CARTESIAN_POINT('',(0.036975,-0.05705,0.));
#1112=CARTESIAN_POINT('',(0.040225,-0.05705,0.));
#1113=CARTESIAN_POINT('',(0.072,0.02262,0.003));
#1114=CARTESIAN_POINT('',(0.072,0.02262,0.003));
#1115=CARTESIAN_POINT('',(0.07525,0.02262,0.003));
#1116=CARTESIAN_POINT('',(0.072,0.02262,0.));
#1117=CARTESIAN_POINT('',(0.07525,0.02262,0.));
#1118=CARTESIAN_POINT('',(-0.072,0.02262,0.003));
#1119=CARTESIAN_POINT('',(-0.072,0.02262,0.003));
#1120=CARTESIAN_POINT('',(-0.06875,0.02262,0.003));
#1121=CARTESIAN_POINT('',(-0.072,0.02262,0.));
#1122=CARTESIAN_POINT('',(-0.06875,0.02262,0.));
#1123=CARTESIAN_POINT('',(0.1315,-0.08813,0.003));
#1124=CARTESIAN_POINT('',(0.1315,-0.08813,0.003));
#1125=CARTESIAN_POINT('',(0.13475,-0.08813,0.003));
#1126=CARTESIAN_POINT('',(0.1315,-0.08813,0.));
#1127=CARTESIAN_POINT('',(0.13475,-0.08813,0.));
#1128=CARTESIAN_POINT('',(0.19225,-0.10638,0.003));
#1129=CARTESIAN_POINT('',(0.19225,-0.10638,0.));
#1130=CARTESIAN_POINT('',(0.19225,-0.10638,0.003));
#1131=CARTESIAN_POINT('',(0.06575,-0.08813,0.003));
#1132=CARTESIAN_POINT('',(0.06575,-0.08813,0.003));
#1133=CARTESIAN_POINT('',(0.069,-0.08813,0.003));
#1134=CARTESIAN_POINT('',(0.06575,-0.08813,0.));
#1135=CARTESIAN_POINT('',(0.069,-0.08813,0.));
#1136=CARTESIAN_POINT('',(-0.1315,-0.08813,0.003));
#1137=CARTESIAN_POINT('',(-0.1315,-0.08813,0.003));
#1138=CARTESIAN_POINT('',(-0.12825,-0.08813,0.003));
#1139=CARTESIAN_POINT('',(-0.1315,-0.08813,0.));
#1140=CARTESIAN_POINT('',(-0.12825,-0.08813,0.));
#1141=CARTESIAN_POINT('',(-0.06575,-0.08813,0.003));
#1142=CARTESIAN_POINT('',(-0.06575,-0.08813,0.003));
#1143=CARTESIAN_POINT('',(-0.0625,-0.08813,0.003));
#1144=CARTESIAN_POINT('',(-0.06575,-0.08813,0.));
#1145=CARTESIAN_POINT('',(-0.0625,-0.08813,0.));
#1146=CARTESIAN_POINT('',(2.16840434497101E-18,-0.08813,0.003));
#1147=CARTESIAN_POINT('',(2.16840434497101E-18,-0.08813,0.003));
#1148=CARTESIAN_POINT('',(0.00325,-0.08813,0.003));
#1149=CARTESIAN_POINT('',(2.16840434497101E-18,-0.08813,0.));
#1150=CARTESIAN_POINT('',(0.00325,-0.08813,0.));
#1151=CARTESIAN_POINT('',(-0.036975,-0.05705,0.003));
#1152=CARTESIAN_POINT('',(-0.036975,-0.05705,0.003));
#1153=CARTESIAN_POINT('',(-0.033725,-0.05705,0.003));
#1154=CARTESIAN_POINT('',(-0.036975,-0.05705,0.));
#1155=CARTESIAN_POINT('',(-0.033725,-0.05705,0.));
#1156=CARTESIAN_POINT('',(0.,-0.041755,0.003));
#1157=CARTESIAN_POINT('',(0.166272934612151,-0.102089312029147,0.003));
#1158=CARTESIAN_POINT('',(-0.166272934612151,-0.102089312029147,0.003));
#1159=CARTESIAN_POINT('',(0.,-0.041755,0.));
#1160=CARTESIAN_POINT('',(0.166272934612151,-0.102089312029147,0.));
#1161=CARTESIAN_POINT('',(-0.166272934612151,-0.102089312029147,0.));
#1162=CARTESIAN_POINT('',(0.166272934612151,-0.102089312029147,0.003));
#1163=CARTESIAN_POINT('',(-0.166272934612151,-0.102089312029147,0.003));
#1164=MECHANICAL_DESIGN_GEOMETRIC_PRESENTATION_REPRESENTATION('',(#683),
#1165);
#1165=(
GEOMETRIC_REPRESENTATION_CONTEXT(3)
GLOBAL_UNCERTAINTY_ASSIGNED_CONTEXT((#1166))
GLOBAL_UNIT_ASSIGNED_CONTEXT((#1169,#1168,#1167))
REPRESENTATION_CONTEXT('Part 1','TOP_LEVEL_ASSEMBLY_PART')
);
#1166=UNCERTAINTY_MEASURE_WITH_UNIT(LENGTH_MEASURE(1.E-8),#1169,
'DISTANCE_ACCURACY_VALUE','Maximum Tolerance applied to model');
#1167=(
NAMED_UNIT(*)
SI_UNIT($,.STERADIAN.)
SOLID_ANGLE_UNIT()
);
#1168=(
NAMED_UNIT(*)
PLANE_ANGLE_UNIT()
SI_UNIT($,.RADIAN.)
);
#1169=(
LENGTH_UNIT()
NAMED_UNIT(*)
SI_UNIT($,.METRE.)
);
#1170=PRODUCT_DEFINITION_SHAPE('','',#1171);
#1171=PRODUCT_DEFINITION('','',#1173,#1172);
#1172=PRODUCT_DEFINITION_CONTEXT('',#1179,'design');
#1173=PRODUCT_DEFINITION_FORMATION_WITH_SPECIFIED_SOURCE('','',#1175,
 .NOT_KNOWN.);
#1174=PRODUCT_RELATED_PRODUCT_CATEGORY('','',(#1175));
#1175=PRODUCT('Part 1','Part 1','Part 1',(#1177));
#1176=PRODUCT_CATEGORY('','');
#1177=PRODUCT_CONTEXT('',#1179,'mechanical');
#1178=APPLICATION_PROTOCOL_DEFINITION('international standard',
'ap242_managed_model_based_3d_engineering',2020,#1179);
#1179=APPLICATION_CONTEXT('managed model based 3d engineering');
ENDSEC;
END-ISO-10303-21;
